<svg width="60" height="60" viewBox="0 0 60 60" fill="none" xmlns="http://www.w3.org/2000/svg">
<path d="M24.4166 34.0729L35.1087 14.8939C35.2557 14.6298 35.4027 14.3691 35.5357 14.0963C35.6565 13.8495 35.758 13.601 35.8245 13.3317C35.9645 12.7652 35.926 12.1744 35.709 11.634C35.4983 11.1015 35.117 10.6527 34.624 10.3568C34.1403 10.0659 33.5711 9.94762 33.0106 10.0214C32.4506 10.0961 31.9378 10.3585 31.5336 10.7686C31.3411 10.9597 31.1836 11.177 31.0384 11.4081C30.8774 11.6618 30.7321 11.9259 30.5851 12.19L29.9097 13.4012L29.2324 12.1883C29.0854 11.9259 28.9402 11.6618 28.7792 11.4081C28.6374 11.1776 28.4714 10.9626 28.284 10.7669C27.8895 10.3613 27.3694 10.0988 26.807 10.0214C26.247 9.94803 25.6785 10.0663 25.1953 10.3568C24.7023 10.6527 24.321 11.1015 24.1103 11.634C23.8941 12.174 23.8537 12.7677 23.9948 13.3317C24.0613 13.601 24.1628 13.8495 24.2818 14.0963C24.4148 14.3691 24.5618 14.6298 24.7088 14.8939L26.8927 18.8107L18.3845 34.0711H12.5537C12.2597 34.0711 11.9657 34.0711 11.6735 34.0885C11.4075 34.1042 11.1485 34.1372 10.8895 34.2119C10.347 34.3683 9.87103 34.6984 9.52804 35.1642C9.18514 35.6328 9.00031 36.1972 9 36.7765C8.99969 37.3557 9.1839 37.9203 9.52629 38.3893C9.87103 38.855 10.3453 39.1835 10.8895 39.3416C11.1485 39.4163 11.4075 39.4493 11.6735 39.465C11.9657 39.4823 12.2597 39.4823 12.5537 39.4823H35.4727C35.5423 39.3303 35.6008 39.1735 35.6477 39.0132C36.374 36.5526 34.5698 34.0711 32.0866 34.0711L24.4166 34.0729ZM14.4489 40.3668L13.0629 42.9734C12.9194 43.2445 12.7742 43.5121 12.6447 43.7918C12.5252 44.0437 12.4314 44.3068 12.3647 44.5773C12.2243 45.1562 12.2633 45.7637 12.4767 46.3202C12.6884 46.8728 13.0612 47.3333 13.5389 47.6321C14.0166 47.931 14.5696 48.0527 15.1156 47.9745C15.6651 47.898 16.1656 47.6304 16.5611 47.2099C16.7501 47.01 16.9041 46.7894 17.0476 46.553C17.205 46.2924 17.3468 46.0213 17.4903 45.7502L19.501 41.969C19.3435 41.7083 17.8438 39.4146 14.4489 40.3668ZM50.4733 35.1433C50.1357 34.6896 49.6563 34.3597 49.1101 34.2049C48.8543 34.1344 48.5913 34.093 48.3261 34.0816C48.0321 34.0642 47.7398 34.0642 47.4459 34.0642H41.6343L33.952 20.4841C32.9437 21.5346 32.2862 22.8684 32.0691 24.3035C31.7871 26.0985 32.1237 27.9354 33.0246 29.5166L42.2538 45.8388C42.4008 46.0995 42.546 46.3601 42.707 46.6104C42.854 46.8363 43.0115 47.05 43.2022 47.2429C43.6065 47.646 44.1192 47.9032 44.6809 47.9779C45.2427 48.0527 45.8062 47.9362 46.2944 47.6478C46.7854 47.3561 47.167 46.9131 47.3811 46.3862C47.5998 45.8527 47.6366 45.2706 47.4966 44.7111C47.4274 44.4503 47.3306 44.1975 47.2079 43.9569C47.0766 43.6876 46.9279 43.4304 46.7809 43.1697L44.6529 39.4059H47.4459C47.7398 39.4059 48.0321 39.4059 48.3261 39.3902C48.5921 39.3746 48.8511 39.3416 49.1101 39.2686C49.6572 39.1137 50.1372 38.7831 50.475 38.3285C50.817 37.8674 51.001 37.3095 51 36.7368C51.001 36.1641 50.817 35.6062 50.475 35.145" fill="#994FDE"/>
</svg>
