<svg width="271" height="271" viewBox="0 0 271 271" fill="none" xmlns="http://www.w3.org/2000/svg">
<g filter="url(#filter0_d_560_5323)">
<rect x="52.6787" y="84.6123" width="136.536" height="136.536" rx="29.3626" transform="rotate(-13.5258 52.6787 84.6123)" fill="url(#paint0_linear_560_5323)"/>
</g>
<path d="M152.823 135.268C151.798 131.009 149.123 127.333 145.387 125.046C141.651 122.759 137.16 122.048 132.901 123.072C128.642 124.097 124.966 126.772 122.679 130.508C120.392 134.244 119.681 138.735 120.706 142.994L124.998 160.836C125.82 164.252 126.395 166.633 127.069 168.371C127.723 170.059 128.376 170.88 129.193 171.381C130.011 171.881 131.039 172.089 132.84 171.904C134.695 171.714 137.077 171.143 140.492 170.322L147.629 168.605C151.045 167.783 153.426 167.208 155.164 166.534C156.853 165.88 157.673 165.227 158.174 164.409C158.674 163.592 158.882 162.564 158.697 160.763C158.507 158.908 157.936 156.526 157.115 153.11L152.823 135.268ZM160.683 152.252C161.48 155.566 162.123 158.229 162.345 160.387C162.572 162.597 162.391 164.549 161.304 166.325C160.216 168.102 158.56 169.151 156.488 169.954C154.466 170.737 151.802 171.376 148.488 172.173L141.351 173.89C138.037 174.687 135.373 175.33 133.216 175.552C131.006 175.779 129.054 175.598 127.277 174.511C125.501 173.423 124.452 171.767 123.649 169.695C122.865 167.673 122.227 165.009 121.429 161.695L117.137 143.852C115.885 138.647 116.754 133.158 119.549 128.592C122.345 124.026 126.838 120.756 132.043 119.504C137.248 118.252 142.737 119.12 147.303 121.916C151.869 124.711 155.139 129.204 156.391 134.409L160.683 152.252Z" fill="#994FDE"/>
<path d="M154.177 133.054C155.162 132.817 156.153 133.424 156.39 134.409C156.627 135.395 156.021 136.386 155.035 136.623L119.35 145.207C118.365 145.444 117.374 144.837 117.137 143.852C116.9 142.867 117.506 141.876 118.492 141.639L154.177 133.054ZM137.824 120L136.966 116.432C136.549 114.7 136.275 113.581 135.966 112.783C135.676 112.035 135.45 111.831 135.281 111.728C135.112 111.624 134.828 111.515 134.029 111.597C133.178 111.685 132.058 111.95 130.325 112.367C128.593 112.784 127.474 113.057 126.676 113.366C125.928 113.656 125.724 113.882 125.621 114.051C125.517 114.22 125.409 114.505 125.491 115.303C125.578 116.154 125.843 117.275 126.26 119.007L127.119 122.576C127.356 123.561 126.749 124.552 125.763 124.789C124.778 125.026 123.787 124.42 123.55 123.434L122.692 119.866C122.299 118.234 121.957 116.831 121.839 115.676C121.715 114.469 121.8 113.263 122.491 112.135C123.181 111.007 124.216 110.383 125.348 109.944C126.012 109.686 126.8 109.464 127.685 109.238L125.966 102.09L120.613 103.378C119.627 103.615 118.636 103.008 118.399 102.023C118.162 101.038 118.769 100.047 119.754 99.8095L136.688 95.7362L137.28 95.6085C140.251 95.0412 143.334 95.5401 145.982 97.0283L146.919 97.5513C147.803 98.0466 148.119 99.1667 147.624 100.051C147.129 100.935 146.008 101.251 145.124 100.755L144.191 100.232L144.187 100.229C142.421 99.2362 140.384 98.8577 138.395 99.141L137.546 99.3047L129.534 101.232L131.254 108.38C132.145 108.178 132.947 108.018 133.656 107.945C134.864 107.821 136.069 107.907 137.197 108.598C138.325 109.288 138.95 110.323 139.389 111.455C139.808 112.537 140.142 113.941 140.534 115.574L141.393 119.142C141.63 120.127 141.023 121.118 140.038 121.356C139.052 121.593 138.061 120.986 137.824 120Z" fill="#994FDE"/>
<defs>
<filter id="filter0_d_560_5323" x="-0.000541687" y="-7.62939e-06" width="270.041" height="270.04" filterUnits="userSpaceOnUse" color-interpolation-filters="sRGB">
<feFlood flood-opacity="0" result="BackgroundImageFix"/>
<feColorMatrix in="SourceAlpha" type="matrix" values="0 0 0 0 0 0 0 0 0 0 0 0 0 0 0 0 0 0 127 0" result="hardAlpha"/>
<feOffset/>
<feGaussianBlur stdDeviation="29.3626"/>
<feComposite in2="hardAlpha" operator="out"/>
<feColorMatrix type="matrix" values="0 0 0 0 0.6 0 0 0 0 0.309804 0 0 0 0 0.870588 0 0 0 0.1 0"/>
<feBlend mode="normal" in2="BackgroundImageFix" result="effect1_dropShadow_560_5323"/>
<feBlend mode="normal" in="SourceGraphic" in2="effect1_dropShadow_560_5323" result="shape"/>
</filter>
<linearGradient id="paint0_linear_560_5323" x1="63.443" y1="84.6123" x2="151.54" y2="198.487" gradientUnits="userSpaceOnUse">
<stop stop-color="#FAEEFF"/>
<stop offset="1" stop-color="#F1DAFF"/>
</linearGradient>
</defs>
</svg>
