<svg width="369" height="470" viewBox="0 0 369 470" fill="none" xmlns="http://www.w3.org/2000/svg">
<g filter="url(#filter0_d_560_5329)">
<rect x="77.748" y="302.058" width="94.7935" height="94.7935" rx="27.5805" transform="rotate(18.3638 77.748 302.058)" fill="url(#paint0_linear_560_5329)"/>
</g>
<g clip-path="url(#clip0_560_5329)">
<path d="M107.239 350.242C107.907 350.464 108.269 351.185 108.047 351.853C107.826 352.521 107.104 352.882 106.437 352.661L96.7629 349.449C96.095 349.228 95.7333 348.507 95.955 347.839C96.1767 347.171 96.8978 346.809 97.5657 347.031L107.239 350.242Z" fill="#994FDE"/>
<path d="M133.064 365.449C133.205 364.895 132.898 364.185 132.145 363.883L132.146 363.88L125.54 361.687C121.805 360.448 118.008 362.284 116.927 365.541C115.846 368.797 117.793 372.541 121.523 373.779L127.818 375.868C128.031 375.939 128.09 375.959 128.132 375.97L128.42 376.021C129.079 376.08 129.616 375.726 129.805 375.267C129.817 375.236 129.837 375.18 129.899 374.994L132.977 365.721C133.037 365.539 133.055 365.481 133.064 365.449ZM132.317 375.796C132.262 375.963 132.216 376.104 132.167 376.226L132.163 376.236C131.406 378.078 129.355 378.931 127.478 378.432L127.473 378.431C127.343 378.396 127.201 378.348 127.015 378.287L120.721 376.197C115.827 374.573 112.929 369.496 114.509 364.738C116.088 359.98 121.444 357.643 126.343 359.269L132.634 361.357C132.819 361.419 132.966 361.467 133.09 361.517L133.093 361.517L133.423 361.667C134.925 362.426 135.863 364.036 135.608 365.717L135.535 366.078L135.531 366.09C135.498 366.217 135.45 366.357 135.395 366.524L132.317 375.796Z" fill="#994FDE"/>
<path d="M83.0696 354.301C84.5719 349.776 85.7371 346.26 87.0123 343.648C88.3039 341.004 89.7885 339.113 92.0235 337.991C94.2589 336.869 96.6608 336.811 99.5521 337.357C102.408 337.897 105.925 339.066 110.45 340.568L117.706 342.977C122.231 344.479 125.749 345.645 128.361 346.92C131.005 348.211 132.895 349.695 134.016 351.931L134.282 352.512C135.499 355.44 135.014 358.708 133.778 363.024L131.329 362.322C132.558 358.032 132.782 355.529 131.924 353.478L131.738 353.073C130.968 351.535 129.631 350.374 127.242 349.208C124.821 348.025 121.497 346.92 116.903 345.395L109.648 342.987C105.054 341.462 101.729 340.36 99.0807 339.859C96.4689 339.366 94.703 339.497 93.1658 340.269C91.6284 341.041 90.469 342.378 89.3029 344.765C88.1203 347.187 87.0131 350.51 85.4881 355.104C83.9631 359.698 82.8611 363.023 82.3606 365.671C81.8669 368.283 81.9982 370.049 82.77 371.586C83.5421 373.123 84.8793 374.283 87.2666 375.449C89.688 376.631 93.0113 377.738 97.6053 379.263L104.861 381.672C109.455 383.197 112.779 384.299 115.427 384.799C118.039 385.293 119.805 385.162 121.342 384.39L121.733 384.176C123.648 383.046 124.967 380.906 126.545 376.733L128.929 377.634C127.34 381.835 125.772 384.743 123.045 386.361L122.485 386.668C120.249 387.79 117.847 387.848 114.956 387.302C112.1 386.762 108.584 385.593 104.058 384.09L96.8025 381.682C92.2769 380.18 88.7608 379.014 86.1497 377.739C83.5052 376.448 81.6147 374.963 80.4925 372.728C79.3703 370.493 79.312 368.091 79.8583 365.199C80.3981 362.344 81.5673 358.827 83.0696 354.301Z" fill="#994FDE"/>
<path d="M123.377 366.339C124.045 366.561 124.407 367.282 124.185 367.95C123.963 368.618 123.242 368.979 122.575 368.758L122.551 368.75C121.883 368.528 121.521 367.807 121.743 367.139C121.965 366.471 122.686 366.11 123.354 366.331L123.377 366.339Z" fill="#994FDE"/>
</g>
<g filter="url(#filter1_d_560_5329)">
<rect x="135.82" y="82.0288" width="154.019" height="154.019" rx="27.5805" transform="rotate(-11.9873 135.82 82.0288)" fill="url(#paint1_linear_560_5329)"/>
</g>
<path d="M195.574 131.171L204.669 174.008C204.823 174.735 205.183 175.282 205.75 175.65C206.316 176.017 206.964 176.124 207.693 175.969L259.407 164.989C260.133 164.835 260.681 164.474 261.048 163.908C261.416 163.342 261.523 162.696 261.369 161.969L252.274 119.132L236.074 122.572L240.777 144.726C241.041 145.968 240.73 147.021 239.844 147.887C238.959 148.752 237.91 149.014 236.697 148.673L228.471 146.568L221.805 151.835C220.838 152.636 219.775 152.822 218.614 152.394C217.453 151.964 216.741 151.127 216.477 149.885L211.774 127.732L195.574 131.171ZM208.553 180.019C206.738 180.404 205.058 180.095 203.513 179.091C201.968 178.088 201.004 176.68 200.619 174.868L191.247 130.727C191.079 129.939 191.047 129.17 191.15 128.42C191.254 127.67 191.495 126.948 191.876 126.255L196.578 117.342C196.996 116.426 197.602 115.674 198.397 115.085C199.192 114.496 200.093 114.094 201.1 113.88L240.045 105.611C241.049 105.398 242.047 105.396 243.04 105.606C244.033 105.816 244.906 106.252 245.659 106.916L253.688 113.296C254.318 113.775 254.835 114.349 255.239 115.019C255.643 115.687 255.93 116.416 256.097 117.207L265.419 161.109C265.803 162.918 265.494 164.597 264.49 166.144C263.487 167.689 262.079 168.654 260.267 169.039L208.553 180.019ZM196.253 126.795L249.794 115.426L243.033 110.098C242.716 109.895 242.373 109.752 242.002 109.669C241.632 109.587 241.265 109.585 240.9 109.662L202.037 117.914C201.675 117.991 201.34 118.144 201.033 118.372C200.726 118.601 200.474 118.872 200.275 119.185L196.253 126.795ZM215.82 126.873L220.251 147.742L227.491 141.972L236.451 144.303L232.02 123.437L215.82 126.873Z" fill="#994FDE"/>
<defs>
<filter id="filter0_d_560_5329" x="-0.000915527" y="254.174" width="215.599" height="215.599" filterUnits="userSpaceOnUse" color-interpolation-filters="sRGB">
<feFlood flood-opacity="0" result="BackgroundImageFix"/>
<feColorMatrix in="SourceAlpha" type="matrix" values="0 0 0 0 0 0 0 0 0 0 0 0 0 0 0 0 0 0 127 0" result="hardAlpha"/>
<feOffset/>
<feGaussianBlur stdDeviation="27.5805"/>
<feComposite in2="hardAlpha" operator="out"/>
<feColorMatrix type="matrix" values="0 0 0 0 0.6 0 0 0 0 0.309804 0 0 0 0 0.870588 0 0 0 0.1 0"/>
<feBlend mode="normal" in2="BackgroundImageFix" result="effect1_dropShadow_560_5329"/>
<feBlend mode="normal" in="SourceGraphic" in2="effect1_dropShadow_560_5329" result="shape"/>
</filter>
<filter id="filter1_d_560_5329" x="85.7803" y="0" width="282.729" height="282.729" filterUnits="userSpaceOnUse" color-interpolation-filters="sRGB">
<feFlood flood-opacity="0" result="BackgroundImageFix"/>
<feColorMatrix in="SourceAlpha" type="matrix" values="0 0 0 0 0 0 0 0 0 0 0 0 0 0 0 0 0 0 127 0" result="hardAlpha"/>
<feOffset/>
<feGaussianBlur stdDeviation="27.5805"/>
<feComposite in2="hardAlpha" operator="out"/>
<feColorMatrix type="matrix" values="0 0 0 0 0.6 0 0 0 0 0.309804 0 0 0 0 0.870588 0 0 0 0.1 0"/>
<feBlend mode="normal" in2="BackgroundImageFix" result="effect1_dropShadow_560_5329"/>
<feBlend mode="normal" in="SourceGraphic" in2="effect1_dropShadow_560_5329" result="shape"/>
</filter>
<linearGradient id="paint0_linear_560_5329" x1="85.2214" y1="302.058" x2="146.385" y2="381.118" gradientUnits="userSpaceOnUse">
<stop stop-color="#FAEEFF"/>
<stop offset="1" stop-color="white"/>
</linearGradient>
<linearGradient id="paint1_linear_560_5329" x1="147.963" y1="82.0288" x2="247.34" y2="210.484" gradientUnits="userSpaceOnUse">
<stop stop-color="#FAEEFF"/>
<stop offset="1" stop-color="white"/>
</linearGradient>
<clipPath id="clip0_560_5329">
<rect width="61.1571" height="61.1571" fill="white" transform="translate(89.0762 324.076) rotate(18.3638)"/>
</clipPath>
</defs>
</svg>
