<svg width="30" height="30" viewBox="0 0 30 30" fill="none" xmlns="http://www.w3.org/2000/svg">
<path fill-rule="evenodd" clip-rule="evenodd" d="M15.9924 8.70838C15.9338 8.30023 15.5564 8.01558 15.1475 8.07201C14.7372 8.12863 14.4504 8.50717 14.507 8.9175L15.25 8.81497C14.507 8.9175 14.5071 8.91806 14.5072 8.91865L14.5074 8.91993L14.5078 8.92287L14.5089 8.93026L14.5121 8.95096C14.5148 8.96737 14.5185 8.98895 14.5235 9.01545C14.5335 9.06846 14.5486 9.14122 14.5706 9.23173C14.6146 9.41275 14.6865 9.66501 14.801 9.97261C15.03 10.5882 15.4293 11.4245 16.1156 12.3532C17.1005 13.686 18.6607 15.1875 21.1159 16.5H5.75C5.33579 16.5 5 16.8358 5 17.25C5 17.6642 5.33579 18 5.75 18H24.75C25.1166 18 25.4295 17.7349 25.4898 17.3733C25.5501 17.0116 25.3401 16.6594 24.9932 16.5405C20.7512 15.0861 18.506 13.0641 17.3219 11.4617C16.727 10.6567 16.3918 9.94677 16.2068 9.44952C16.1142 9.20071 16.0592 9.00493 16.028 8.877C16.0125 8.81304 16.0029 8.7661 15.9976 8.73803C15.995 8.724 15.9934 8.71469 15.9927 8.71035C15.9926 8.70951 15.9925 8.70885 15.9924 8.70838Z" fill="#2E3854"/>
</svg>
