<?xml version="1.0" encoding="UTF-8" standalone="no"?>
<!DOCTYPE svg PUBLIC "-//W3C//DTD SVG 1.1//EN" "http://www.w3.org/Graphics/SVG/1.1/DTD/svg11.dtd">
<svg width="100%" height="100%" viewBox="0 0 60 60" version="1.1" xmlns="http://www.w3.org/2000/svg" xmlns:xlink="http://www.w3.org/1999/xlink" xml:space="preserve" xmlns:serif="http://www.serif.com/" style="fill-rule:evenodd;clip-rule:evenodd;stroke-linejoin:round;stroke-miterlimit:2;">
    <g transform="matrix(1,0,0,1,7.93255,3.93511)">
        <path d="M20.611,45.435C17.705,37.026 13.684,32.566 10.494,30.209C8.883,29.019 7.464,28.348 6.469,27.978C5.972,27.793 5.58,27.683 5.324,27.621C5.196,27.59 5.102,27.571 5.046,27.56L4.991,27.55L4.987,27.55C4.171,27.432 3.601,26.678 3.714,25.86C3.827,25.039 4.584,24.466 5.405,24.579L5.2,26.065C5.405,24.579 5.406,24.579 5.407,24.579L5.431,24.583L5.472,24.589L5.601,24.612C5.707,24.632 5.853,24.662 6.034,24.706C6.396,24.794 6.9,24.938 7.515,25.167C8.746,25.625 10.419,26.423 12.277,27.796C14.94,29.765 17.941,32.882 20.565,37.787L20.565,7.065C20.565,6.236 21.237,5.565 22.065,5.565L22.07,5.565C22.898,5.565 23.57,6.236 23.57,7.065L23.57,37.787C26.194,32.882 29.195,29.765 31.858,27.796C33.716,26.423 35.389,25.625 36.62,25.167C37.235,24.938 37.739,24.794 38.101,24.706C38.282,24.662 38.428,24.632 38.534,24.612L38.663,24.589L38.704,24.583L38.728,24.579C38.729,24.579 38.73,24.579 38.935,26.065L38.73,24.579C39.551,24.466 40.308,25.039 40.421,25.86C40.534,26.678 39.964,27.433 39.148,27.55L39.144,27.55L39.089,27.56C39.033,27.571 38.939,27.59 38.811,27.621C38.555,27.683 38.163,27.793 37.666,27.979C36.671,28.349 35.252,29.019 33.641,30.209C30.451,32.566 26.43,37.026 23.524,45.435C23.38,46 22.914,46.445 22.317,46.544C22.151,46.572 21.983,46.572 21.818,46.544C21.221,46.445 20.755,46 20.611,45.435Z" style="fill:rgb(46,56,84);"/>
    </g>
</svg>
