<svg width="34" height="26" viewBox="0 0 34 26" fill="none" xmlns="http://www.w3.org/2000/svg">
<path d="M7.44108 26C5.0752 26 3.24355 25.2655 1.94613 23.7966C0.648709 22.3277 0 20.3814 0 17.9576C0 16.1215 0.381594 14.1751 1.14478 12.1186C1.98429 10.0621 3.24355 7.96893 4.92256 5.83898C6.60157 3.70904 8.7385 1.76271 11.3333 0L13.8519 2.97458C11.1807 5.03107 9.27273 7.01412 8.12795 8.92373C6.98316 10.7599 6.33446 12.7062 6.18182 14.7627H8.12795C9.42536 14.7627 10.4938 14.9831 11.3333 15.4237C12.2492 15.8644 12.8979 16.452 13.2795 17.1864C13.7374 17.9209 13.9663 18.8023 13.9663 19.8305C13.9663 21.5932 13.3558 23.0621 12.1347 24.2373C10.9136 25.4124 9.34905 26 7.44108 26ZM27.4747 26C25.1089 26 23.2772 25.2655 21.9798 23.7966C20.7587 22.3277 20.1481 20.3814 20.1481 17.9576C20.1481 16.1215 20.5297 14.1751 21.2929 12.1186C22.0561 10.0621 23.2772 7.96893 24.9562 5.83898C26.6352 3.70904 28.8103 1.76271 31.4815 0L34 2.97458C31.2525 5.03107 29.3064 7.01412 28.1616 8.92373C27.0168 10.7599 26.3681 12.7062 26.2155 14.7627H28.1616C29.459 14.7627 30.5275 14.9831 31.367 15.4237C32.2828 15.8644 32.9315 16.452 33.3131 17.1864C33.771 17.9209 34 18.8023 34 19.8305C34 21.5932 33.3895 23.0621 32.1684 24.2373C30.9472 25.4124 29.3827 26 27.4747 26Z" fill="#CCEB6F"/>
</svg>
