<svg width="60" height="60" viewBox="0 0 60 60" fill="none" xmlns="http://www.w3.org/2000/svg">
<path d="M44.6162 13.2624C45.2021 12.6765 46.1521 12.6765 46.738 13.2624C47.3237 13.8483 47.3237 14.7981 46.738 15.384L15.384 46.738C14.7981 47.3237 13.8483 47.3237 13.2624 46.738C12.6765 46.1521 12.6765 45.2021 13.2624 44.6162L44.6162 13.2624Z" fill="black"/>
<path d="M15.3838 13.2624C14.7979 12.6765 13.8479 12.6765 13.262 13.2624C12.6763 13.8483 12.6763 14.7981 13.262 15.384L44.616 46.738C45.2019 47.3237 46.1517 47.3237 46.7376 46.738C47.3235 46.1521 47.3235 45.2021 46.7376 44.6162L15.3838 13.2624Z" fill="black"/>
</svg>
