<?xml version="1.0" encoding="UTF-8" standalone="no"?>
<!DOCTYPE svg PUBLIC "-//W3C//DTD SVG 1.1//EN" "http://www.w3.org/Graphics/SVG/1.1/DTD/svg11.dtd">
<svg width="100%" height="100%" viewBox="0 0 30 30" version="1.1" xmlns="http://www.w3.org/2000/svg" xmlns:xlink="http://www.w3.org/1999/xlink" xml:space="preserve" xmlns:serif="http://www.serif.com/" style="fill-rule:evenodd;clip-rule:evenodd;stroke-linejoin:round;stroke-miterlimit:2;">
    <g transform="matrix(-1,0,0,1,30.5001,0)">
        <path d="M15.992,8.708C15.934,8.3 15.556,8.016 15.148,8.072C14.737,8.129 14.45,8.507 14.507,8.918L15.25,8.815C14.507,8.918 14.507,8.918 14.507,8.919L14.512,8.951C14.515,8.967 14.519,8.989 14.524,9.015C14.534,9.068 14.549,9.141 14.571,9.232C14.615,9.413 14.687,9.665 14.801,9.973C15.03,10.588 15.429,11.425 16.116,12.353C17.101,13.686 18.661,15.188 21.116,16.5L5.75,16.5C5.336,16.5 5,16.836 5,17.25C5,17.664 5.336,18 5.75,18L24.75,18C25.117,18 25.43,17.735 25.49,17.373C25.55,17.012 25.34,16.659 24.993,16.541C20.751,15.086 18.506,13.064 17.322,11.462C16.727,10.657 16.392,9.947 16.207,9.45C16.114,9.201 16.059,9.005 16.028,8.877C16.012,8.813 16.003,8.766 15.998,8.738C15.995,8.724 15.993,8.709 15.992,8.708Z" style="fill:rgb(46,56,84);"/>
    </g>
</svg>
