<svg width="60" height="60" viewBox="0 0 60 60" fill="none" xmlns="http://www.w3.org/2000/svg">
<line x1="6" y1="3" x2="54" y2="3" stroke="#2E3854" stroke-width="2"/>
<line x1="6" y1="19" x2="54" y2="19" stroke="#2E3854" stroke-width="2"/>
<path d="M3.17856 56V44.8H5.61056L10.0906 51.312L8.42656 51.296L12.9546 44.8H15.3226V56H12.6826V52.448C12.6826 51.52 12.7039 50.672 12.7466 49.904C12.7999 49.1253 12.8852 48.3467 13.0026 47.568L13.2906 48.432L9.75456 53.28H8.69856L5.19456 48.432L5.49856 47.568C5.6159 48.3253 5.6959 49.088 5.73856 49.856C5.7919 50.6133 5.81856 51.4773 5.81856 52.448V56H3.17856ZM19.2254 56V44.8H27.9294V47.12H21.8654V53.68H28.0894V56H19.2254ZM20.5694 51.408V49.2H27.2094V51.408H20.5694ZM31.5223 56V44.8H34.0183L40.7863 52.8L40.3223 52.72C40.2583 52.3467 40.2103 51.9893 40.1783 51.648C40.1463 51.3067 40.1143 50.976 40.0823 50.656C40.061 50.336 40.0396 50.016 40.0183 49.696C40.0076 49.376 40.0023 49.04 40.0023 48.688C40.0023 48.336 40.0023 47.9627 40.0023 47.568V44.8H42.6423V56H40.1143L33.0903 47.744L33.8423 47.856C33.8743 48.2293 33.9063 48.5653 33.9383 48.864C33.981 49.1627 34.013 49.4453 34.0343 49.712C34.0663 49.968 34.0876 50.2293 34.0983 50.496C34.1196 50.752 34.1356 51.024 34.1463 51.312C34.157 51.6 34.1623 51.9147 34.1623 52.256V56H31.5223ZM51.6899 56.096C50.6553 56.096 49.7433 55.888 48.9539 55.472C48.1646 55.056 47.5459 54.4853 47.0979 53.76C46.6606 53.0347 46.4419 52.208 46.4419 51.28V44.8H49.1939V51.168C49.1939 51.648 49.3006 52.08 49.5139 52.464C49.7379 52.848 50.0366 53.152 50.4099 53.376C50.7833 53.5893 51.2099 53.696 51.6899 53.696C52.1913 53.696 52.6286 53.5893 53.0019 53.376C53.3859 53.152 53.6899 52.848 53.9139 52.464C54.1486 52.08 54.2659 51.648 54.2659 51.168V44.8H56.9219V51.28C56.9219 52.208 56.6979 53.0347 56.2499 53.76C55.8126 54.4853 55.1993 55.056 54.4099 55.472C53.6206 55.888 52.7139 56.096 51.6899 56.096Z" fill="#2E3854"/>
</svg>
