<svg width="924" height="423" viewBox="0 0 924 423" fill="none" xmlns="http://www.w3.org/2000/svg">
<g clip-path="url(#clip0_522_8208)">
<path d="M441.416 301.596C443.76 301.596 445.661 299.651 445.661 297.252C445.661 294.852 443.76 292.907 441.416 292.907C439.072 292.907 437.172 294.852 437.172 297.252C437.172 299.651 439.072 301.596 441.416 301.596Z" fill="#E77E42"/>
<path d="M252.408 358.648C254.082 358.648 255.439 357.259 255.439 355.546C255.439 353.833 254.082 352.444 252.408 352.444C250.735 352.444 249.378 353.833 249.378 355.546C249.378 357.259 250.735 358.648 252.408 358.648Z" fill="white"/>
<path d="M34.4285 295.308C35.835 295.308 36.9751 294.141 36.9751 292.701C36.9751 291.262 35.835 290.095 34.4285 290.095C33.022 290.095 31.8818 291.262 31.8818 292.701C31.8818 294.141 33.022 295.308 34.4285 295.308Z" fill="#1BEAFF"/>
<path d="M440.815 219.487C441.485 219.487 442.029 218.93 442.029 218.243C442.029 217.557 441.485 217 440.815 217C440.144 217 439.601 217.557 439.601 218.243C439.601 218.93 440.144 219.487 440.815 219.487Z" fill="white"/>
<path d="M880.863 341.28C881.428 341.28 881.885 340.811 881.885 340.233C881.885 339.654 881.428 339.186 880.863 339.186C880.299 339.186 879.841 339.654 879.841 340.233C879.841 340.811 880.299 341.28 880.863 341.28Z" fill="white"/>
<path d="M284.52 233.39C285.19 233.39 285.734 232.833 285.734 232.146C285.734 231.46 285.19 230.903 284.52 230.903C283.849 230.903 283.306 231.46 283.306 232.146C283.306 232.833 283.849 233.39 284.52 233.39Z" fill="white"/>
<path d="M283.306 342.532C283.976 342.532 284.52 341.975 284.52 341.288C284.52 340.602 283.976 340.045 283.306 340.045C282.635 340.045 282.092 340.602 282.092 341.288C282.092 341.975 282.635 342.532 283.306 342.532Z" fill="white"/>
<g opacity="0.1">
<path d="M-44.5379 414.567L-74 404.368L163.732 185L193.2 195.206L-44.5379 414.567Z" fill="url(#paint0_linear_522_8208)"/>
<path d="M195.079 494.732L135.188 473.995L372.926 254.634L432.822 275.374L195.079 494.732Z" fill="url(#paint1_linear_522_8208)"/>
</g>
</g>
<defs>
<linearGradient id="paint0_linear_522_8208" x1="-53.6402" y1="404.286" x2="23.3184" y2="182.014" gradientUnits="userSpaceOnUse">
<stop stop-color="white"/>
<stop offset="0.32" stop-color="white" stop-opacity="0.67"/>
<stop offset="0.79" stop-color="white" stop-opacity="0.19"/>
<stop offset="1" stop-color="white" stop-opacity="0"/>
</linearGradient>
<linearGradient id="paint1_linear_522_8208" x1="173.759" y1="480.217" x2="250.717" y2="257.945" gradientUnits="userSpaceOnUse">
<stop stop-color="white"/>
<stop offset="0.32" stop-color="white" stop-opacity="0.67"/>
<stop offset="0.79" stop-color="white" stop-opacity="0.19"/>
<stop offset="1" stop-color="white" stop-opacity="0"/>
</linearGradient>
<clipPath id="clip0_522_8208">
<rect width="924" height="423" fill="white"/>
</clipPath>
</defs>
</svg>
