<svg width="60" height="60" viewBox="0 0 60 60" fill="none" xmlns="http://www.w3.org/2000/svg">
<path d="M17.5 42.5C14.0417 42.5 11.0942 41.2808 8.6575 38.8425C6.22084 36.4042 5.00167 33.4567 5 30C4.99834 26.5433 6.2175 23.5958 8.6575 21.1575C11.0975 18.7192 14.045 17.5 17.5 17.5H25C25.7083 17.5 26.3025 17.74 26.7825 18.22C27.2625 18.7 27.5017 19.2933 27.5 20C27.4983 20.7067 27.2583 21.3008 26.78 21.7825C26.3017 22.2642 25.7083 22.5033 25 22.5H17.5C15.4167 22.5 13.6458 23.2292 12.1875 24.6875C10.7292 26.1458 10 27.9167 10 30C10 32.0833 10.7292 33.8542 12.1875 35.3125C13.6458 36.7708 15.4167 37.5 17.5 37.5H25C25.7083 37.5 26.3025 37.74 26.7825 38.22C27.2625 38.7 27.5017 39.2933 27.5 40C27.4983 40.7067 27.2583 41.3008 26.78 41.7825C26.3017 42.2642 25.7083 42.5033 25 42.5H17.5ZM22.5 32.5C21.7917 32.5 21.1983 32.26 20.72 31.78C20.2417 31.3 20.0017 30.7067 20 30C19.9983 29.2933 20.2383 28.7 20.72 28.22C21.2017 27.74 21.795 27.5 22.5 27.5H37.5C38.2083 27.5 38.8025 27.74 39.2825 28.22C39.7625 28.7 40.0017 29.2933 40 30C39.9983 30.7067 39.7583 31.3008 39.28 31.7825C38.8017 32.2642 38.2083 32.5033 37.5 32.5H22.5ZM35 42.5C34.2917 42.5 33.6983 42.26 33.22 41.78C32.7417 41.3 32.5017 40.7067 32.5 40C32.4983 39.2933 32.7383 38.7 33.22 38.22C33.7017 37.74 34.295 37.5 35 37.5H42.5C44.5833 37.5 46.3542 36.7708 47.8125 35.3125C49.2708 33.8542 50 32.0833 50 30C50 27.9167 49.2708 26.1458 47.8125 24.6875C46.3542 23.2292 44.5833 22.5 42.5 22.5H35C34.2917 22.5 33.6983 22.26 33.22 21.78C32.7417 21.3 32.5017 20.7067 32.5 20C32.4983 19.2933 32.7383 18.7 33.22 18.22C33.7017 17.74 34.295 17.5 35 17.5H42.5C45.9583 17.5 48.9067 18.7192 51.345 21.1575C53.7833 23.5958 55.0017 26.5433 55 30C54.9983 33.4567 53.7792 36.405 51.3425 38.845C48.9058 41.285 45.9583 42.5033 42.5 42.5H35Z" fill="#994FDE"/>
</svg>
